<?xml version="1.0" encoding="UTF-8"?><svg id="Capa_1" xmlns="http://www.w3.org/2000/svg" viewBox="0 0 500 500"><defs><style>.cls-1{fill:#50bfa9;}.cls-1,.cls-2{stroke-width:0px;}.cls-2{fill:#fff;}</style></defs><path class="cls-2" d="m226.95,131.47c0,1.71,1.39,3.09,3.09,3.09h26.68c36.93,0,61.84,25.49,61.84,61.83v.59c0,8.06-1.3,15.52-3.61,22.31,15.87-19.38,30.98-48.24,31.57-82.3.01-.73-.22-1.46-.66-2.04-19.02-25.18-50.49-41.11-89.15-41.11h-26.68c-1.71,0-3.09,1.39-3.09,3.09v34.55Z"/><path class="cls-1" d="m356.34,152.33c-1.28-2.76-5.38-2.09-5.83.91-5.61,37.42-27.24,67.38-45.14,83.71-10.87,13.38-27.85,21.28-48.63,21.28h-26.69c-1.71,0-3.09,1.39-3.09,3.09v34.55c0,1.71,1.39,3.09,3.09,3.09h26.69c64.47,0,109.01-44.83,109.01-102.57v-.59c0-15.7-3.31-30.4-9.41-43.48"/><path class="cls-1" d="m221.91,344.81h-.05v-188.79h.05v-57.47c0-2.61-1.38-4.72-3.09-4.72h-39c-1.71,0-3.09,2.11-3.09,4.72v303.73c0,2.61,1.38,4.72,3.09,4.72h39c1.71,0,3.09-2.11,3.09-4.72v-57.46Z"/></svg>